Coordinates
version=1
nRows=8
nColumns=63
inDegrees=yes

Units are S.I. units (second, meters, Newtons, ...)
If the header above contains a line with 'inDegrees', this indicates whether rotational values are in degrees (yes) or radians (no).

endheader
time	pelvis_tilt	pelvis_list	pelvis_rotation	pelvis_tx	pelvis_ty	pelvis_tz	hip_flexion_r	hip_adduction_r	hip_rotation_r	knee_angle_r	knee_angle_r_beta	ankle_angle_r	subtalar_angle_r	mtp_angle_r	hip_flexion_l	hip_adduction_l	hip_rotation_l	knee_angle_l	knee_angle_l_beta	ankle_angle_l	subtalar_angle_l	mtp_angle_l	L5_S1_Flex_Ext	L5_S1_Lat_Bending	L5_S1_axial_rotation	L4_L5_Flex_Ext	L4_L5_Lat_Bending	L4_L5_axial_rotation	L3_L4_Flex_Ext	L3_L4_Lat_Bending	L3_L4_axial_rotation	L2_L3_Flex_Ext	L2_L3_Lat_Bending	L2_L3_axial_rotation	L1_L2_Flex_Ext	L1_L2_Lat_Bending	L1_L2_axial_rotation	L1_T12_Flex_Ext	L1_T12_Lat_Bending	L1_T12_axial_rotation	Abs_r3	Abs_r2	Abs_r1	Abs_t1	Abs_t2	neck_flexion	neck_bending	neck_rotation	arm_flex_r	arm_add_r	arm_rot_r	elbow_flex_r	pro_sup_r	wrist_flex_r	wrist_dev_r	arm_flex_l	arm_add_l	arm_rot_l	elbow_flex_l	pro_sup_l	wrist_flex_l	wrist_dev_l
3.050000	0.650009	-16.092825	79.385050	0.315873	0.569954	0.689402	21.167839	7.128479	2.522118	13.112357	0.228854	35.040024	-3.124621	0.000000	21.980857	-8.480709	0.676200	16.679486	0.291112	35.952243	2.239498	0.000000	-0.221493	-1.312303	2.094747	-0.411335	-1.745363	2.225669	-0.363892	-3.190733	2.225669	-0.253145	-3.190733	1.832904	-0.205679	-2.676048	1.701982	-0.126561	-2.032757	1.571060	-1.582105	-14.845032	11.650354	0.000000	0.000000	-0.539668	5.915882	-21.674405	67.897983	-20.183744	61.202745	46.976997	84.109868	32.360220	21.404197	9.155276	-25.086376	34.764080	29.830209	87.908329	-14.231540	-1.834141
3.066667	0.582334	-16.683130	80.184764	0.313613	0.568716	0.690325	22.021589	6.811887	1.600035	13.492621	0.235491	35.224660	-2.723777	0.000000	22.745943	-8.255462	0.612956	16.451423	0.287132	35.850624	2.861293	0.000000	-0.224095	-1.289159	2.179676	-0.416167	-1.714582	2.315906	-0.368166	-3.134462	2.315906	-0.256118	-3.134462	1.907216	-0.208095	-2.628853	1.770987	-0.128048	-1.996908	1.634757	-1.600690	-14.583226	12.122703	0.000000	0.000000	-0.564913	5.885170	-21.205797	66.052397	-22.084570	56.739602	49.341729	85.142378	33.161524	22.478338	8.731233	-25.293811	33.274539	32.767749	88.022843	-12.548996	-2.738041
3.083333	0.577571	-17.025581	80.939413	0.311573	0.567970	0.690684	22.496428	6.524102	0.793670	13.737475	0.239764	35.331361	-2.402858	0.000000	23.173861	-8.047576	0.586412	16.172017	0.282255	35.772877	3.523461	0.000000	-0.233198	-1.260814	2.210236	-0.433071	-1.676882	2.348375	-0.383120	-3.065543	2.348375	-0.266522	-3.065543	1.933956	-0.216547	-2.571051	1.795816	-0.133249	-1.953001	1.657677	-1.665707	-14.262578	12.292667	0.000000	0.000000	-0.732683	5.875747	-20.425847	64.257559	-23.972309	52.110120	52.634785	86.240168	33.954548	23.967468	7.967275	-25.561234	30.817382	36.662502	88.087104	-10.468214	-3.086949
3.100000	0.608441	-17.141184	81.619949	0.309863	0.567736	0.690508	22.621709	6.260931	0.127427	13.839674	0.241548	35.358679	-2.166735	0.000000	23.285650	-7.851095	0.581994	15.840158	0.276463	35.698977	4.213135	0.000000	-0.246571	-1.229675	2.196614	-0.457907	-1.635468	2.333902	-0.405092	-2.989832	2.333902	-0.281806	-2.989832	1.922037	-0.228966	-2.507554	1.784749	-0.140891	-1.904767	1.647461	-1.761232	-13.910331	12.216908	0.000000	0.000000	-1.030891	5.857369	-19.404211	62.452969	-25.604039	47.475286	56.429348	87.185038	34.286068	25.606629	7.041514	-25.883049	27.771490	41.425884	88.103244	-8.259453	-2.862935
3.116667	0.653757	-17.078215	82.201882	0.308547	0.567980	0.689803	22.444829	6.026096	-0.367623	13.772720	0.240379	35.289034	-2.026362	0.000000	23.126973	-7.666820	0.590847	15.449708	0.269648	35.604790	4.896077	0.000000	-0.259954	-1.196832	2.149388	-0.482761	-1.591786	2.283725	-0.427079	-2.909977	2.283725	-0.297102	-2.909977	1.880715	-0.241393	-2.440579	1.746378	-0.148538	-1.853892	1.612041	-1.856827	-13.538800	11.954251	0.000000	0.000000	-1.432029	5.773866	-18.224999	60.622166	-26.831774	42.987059	60.352376	87.859390	33.787328	26.967859	6.113669	-26.213344	24.442602	46.953659	88.101629	-6.086812	-2.110598
3.133333	0.709779	-16.896092	82.662774	0.307627	0.568618	0.688608	22.036495	5.836742	-0.710768	13.544147	0.236390	35.129988	-1.934980	0.000000	22.758809	-7.514495	0.597655	15.006694	0.261916	35.480136	5.540204	0.000000	-0.269698	-1.160984	2.082358	-0.500857	-1.544109	2.212505	-0.443087	-2.822816	2.212505	-0.308238	-2.822816	1.822063	-0.250442	-2.367478	1.691915	-0.154106	-1.798364	1.561768	-1.926428	-13.133282	11.581448	0.000000	0.000000	-1.919725	5.537853	-16.988338	58.780404	-27.585430	38.653606	64.176646	88.289448	32.470182	27.772259	5.384772	-26.500167	21.214055	53.091631	88.065485	-4.168287	-0.872020
3.150000	0.764150	-16.630140	83.012520	0.307077	0.569586	0.686997	21.453305	5.686626	-0.983721	13.172272	0.229900	34.902409	-1.807672	0.000000	22.230970	-7.394337	0.585872	14.519895	0.253420	35.304737	6.154612	0.000000	-0.275401	-1.123785	1.998125	-0.511448	-1.494634	2.123008	-0.452457	-2.732371	2.123008	-0.314756	-2.732371	1.748360	-0.255738	-2.291622	1.623477	-0.157364	-1.740743	1.498594	-1.967164	-12.712481	11.112974	0.000000	0.000000	-2.495942	5.127246	-15.751643	56.922524	-27.814448	34.303528	67.784340	88.634038	30.514572	27.904533	5.025213	-26.695883	18.239946	59.646653	88.000917	-2.617414	0.749688
3.166667	0.817884	-16.300269	83.253665	0.306856	0.570794	0.685122	20.743093	5.585817	-1.121809	12.694689	0.221564	34.603332	-1.738431	0.000000	21.586271	-7.312739	0.543673	14.018089	0.244662	35.083389	6.734179	0.000000	-0.279119	-1.085101	1.890875	-0.518353	-1.443185	2.009055	-0.458565	-2.638315	2.009055	-0.319006	-2.638315	1.654516	-0.259190	-2.212738	1.536336	-0.159489	-1.680822	1.418156	-1.993723	-12.274882	10.516479	0.000000	0.000000	-3.149055	4.534416	-14.464630	55.130193	-27.436850	29.991279	71.070254	88.741087	28.026424	27.301538	5.109800	-26.742345	15.296141	66.434216	88.026046	-1.502714	2.665032
